<?xml version="1.0" encoding="utf-8"?>
<!-- Generator: Adobe Illustrator 13.0.0, SVG Export Plug-In  -->
<!DOCTYPE svg PUBLIC "-//W3C//DTD SVG 1.1 Tiny//EN" "http://www.w3.org/Graphics/SVG/1.1/DTD/svg11-tiny.dtd" [
	<!ENTITY ns_flows "http://ns.adobe.com/Flows/1.0/">
]>
<svg version="1.1" baseProfile="tiny"
	 xmlns="http://www.w3.org/2000/svg" xmlns:xlink="http://www.w3.org/1999/xlink" xmlns:a="http://ns.adobe.com/AdobeSVGViewerExtensions/3.0/"
	 x="0px" y="0px" width="86px" height="86px" viewBox="0 -1 86 86" xml:space="preserve">
<defs>
</defs>
<circle fill="#01296F" cx="42.5" cy="42.5" r="42.5"/>
<path id="BEMVINDO_colaboradores_icon_1_" fill="#00BADC" d="M50.1,15.8c0.9,0.2,1.7,0.8,2.3,1.5c1.2,1.6,0.8,3.9-0.8,5
	c-1.6,1.2-3.9,0.8-5-0.8c-1.2-1.6-0.8-3.9,0.8-5c0.3-0.2,0.6-0.3,0.9-0.5c0.2-0.1,0.3-0.1,0.5-0.2H50.1L50.1,15.8z M36.3,15.8
	c0.2,0.1,0.4,0.1,0.5,0.2c1.8,0.7,2.8,2.8,2.1,4.6s-2.8,2.8-4.6,2.1c-1.8-0.7-2.8-2.8-2.1-4.6c0.4-1.1,1.3-1.9,2.4-2.2
	c0.1,0,0.2-0.1,0.3-0.1L36.3,15.8L36.3,15.8z M34.4,65.4c0.5-1.3,1.1-2.7,1.5-4c0.2-0.6,0.6-1,1.1-1.3c1-0.6,2-1.2,3.1-1.8
	c0.4-0.2,0.6-0.6,0.6-1c0-0.6,0-1.2,0-1.7c-0.1-0.5,0.3-1,0.8-1.1c1.1-0.2,2-0.9,2.4-2c0.4-0.8,0.9-1.6,1.4-2.4
	c1-1.4,0.6-3.4-0.9-4.3c-0.4-0.3-0.8-0.4-1.3-0.5c-0.1,0-0.2,0-0.3-0.1c-1.1,0.1-2-0.7-2.1-1.8c-0.2-0.7-0.5-1.4-0.8-2
	c0.2,0,0.3,0,0.5,0c4,0,8,0,12.1,0c0.3,0,0.5,0.1,0.7,0.4c0.9,1.5,1.9,3,2.8,4.5c0.1,0.2,0.2,0.5,0.2,0.8c0,2.1,0,4.3,0,6.4
	c0,1.2,0.4,2.3,1.1,3.2c0.8,1,1.7,2,2.5,3C53.3,66.3,43.3,68.6,34.4,65.4L34.4,65.4z M32.9,64.8c-0.6-0.1-1.1-0.6-1.2-1.2
	c-0.3-1.9-0.7-3.9-1.1-5.8c-0.1-0.5,0-0.9,0.4-1.3c0.4-0.4,0.7-0.7,1-1.1c1.1-1.4,0.9-3.3-0.5-4.4c-0.3-0.3-0.7-0.5-1.1-0.6
	c-0.2-0.1-0.3-0.1-0.5-0.1c-1,0-1.8-0.7-2-1.7c-0.4-1.4-1.1-2.6-1.6-4c-0.5-1.4,0.2-2.8,1.5-3.4c0.1,0,0.2,0,0.3,0
	c3.2,0,6.4,0,9.6,0c0.3,0,0.5,0.1,0.6,0.4c0.5,1.3,1,2.6,1.6,3.9c0.1,0.4,0.5,0.7,0.9,0.7c0.7,0.1,1.5,0.3,2.2,0.5
	c0.8,0.1,1.4,0.9,1.2,1.7c0,0.2-0.1,0.4-0.2,0.6c-0.6,1.1-1.3,2.2-2,3.2c-0.1,0.1-0.3,0.3-0.4,0.3c-0.3,0.1-0.6,0.2-0.8,0.3
	c-0.9,0.3-1.6,1.2-1.7,2.2c0,0.1,0,0.3,0,0.4c0.3,1-0.3,2-1.3,2.3c-0.8,0.4-1.6,0.9-2.3,1.4c-0.3,0.2-0.6,0.5-0.7,0.9
	c-0.6,1.4-1.1,2.9-1.7,4.3C33.1,64.6,33,64.7,32.9,64.8L32.9,64.8z M30.1,63.5c-1-0.7-2-1.3-2.9-2c-4.9-3.8-8.1-9.3-9.1-15.4
	c-0.2-1.3-0.3-2.7-0.3-4c-0.1-0.4,0.2-0.8,0.6-0.9c0.1,0,0.1,0,0.2,0c2.2,0,4.5,0,6.7,0c0.1,0,0.1,0,0.2,0c-0.5,0.7-0.8,1.5-0.8,2.4
	c0,0.6,0.1,1.1,0.3,1.6c0.7,1.8,1.5,3.6,2.2,5.3c0.1,0.4,0.5,0.7,0.9,0.8c0.6,0.1,1.3,0.3,1.9,0.5c0.8,0.2,1.4,1.1,1.2,1.9
	c-0.1,0.3-0.2,0.5-0.4,0.7c-0.3,0.4-0.7,0.8-1.1,1.2c-0.5,0.6-0.8,1.5-0.6,2.3c0.3,1.7,0.7,3.5,1,5.2C30.1,63.3,30.1,63.4,30.1,63.5
	L30.1,63.5z M61,58.4c-0.9-1.1-1.8-2.1-2.6-3.2c-0.4-0.6-0.6-1.2-0.5-1.9c0-2.2,0-4.5,0-6.7c0-0.4-0.1-0.8-0.3-1.1
	c-0.8-1.3-1.6-2.5-2.4-3.7c-0.1-0.1-0.2-0.3-0.3-0.5h11.4c0.5-0.1,0.9,0.1,1,0.6c0,0.1,0,0.3,0,0.4c0,5.8-2.1,11.4-5.9,15.7
	c-0.1,0.1-0.2,0.2-0.3,0.3C61.1,58.4,61,58.4,61,58.4L61,58.4z M34.8,39.7H22.6c-0.4-2.6,0.3-5,3.1-6.1c0.3-0.1,0.5-0.1,0.8,0
	c1.4,0.6,3,0.6,4.3,0c0.2-0.1,0.5-0.1,0.7,0c1.9,0.6,3.1,2.4,3.2,4.3C34.8,38.5,34.8,39.1,34.8,39.7L34.8,39.7z M50.1,39.7
	c0.1-1,0.2-2,0.4-3c0.4-1.4,1.5-2.6,2.9-3c0.2-0.1,0.5-0.1,0.7,0c1.4,0.6,3,0.6,4.4,0c0.2-0.1,0.5-0.1,0.7,0
	c1.9,0.6,3.2,2.4,3.2,4.4c0,0.5,0,1.1,0,1.7H50.1L50.1,39.7z M48.6,39.7H36.4c-0.3-2.8,0.5-4.9,3-6c0.3-0.2,0.7-0.2,1.1,0
	c1.3,0.6,2.9,0.6,4.2,0c0.3-0.1,0.5-0.1,0.8,0c1.8,0.6,3,2.2,3.1,4.1C48.7,38.3,48.6,39,48.6,39.7L48.6,39.7z M38.5,32.2
	c-0.6,0.4-1.1,0.8-1.6,1.2c-0.5,0.5-0.9,1-1.3,1.5c-0.4-0.5-0.8-1-1.3-1.5c-0.5-0.4-1.1-0.8-1.6-1.2c0.9-1.1,1.3-2.6,1.1-4
	c-0.2-1.5-1.1-2.8-2.3-3.6c0.5-0.2,0.9-0.4,1.4-0.6c0.2,0,0.4,0,0.5,0.1c1.4,0.7,3.1,0.7,4.5,0c0.2-0.1,0.4-0.1,0.6,0
	c0.4,0.1,0.8,0.3,1.2,0.6c-1.2,0.8-2.1,2.2-2.3,3.6C37.2,29.6,37.6,31.1,38.5,32.2L38.5,32.2z M52.4,32.3c-1.2,0.6-2.3,1.5-3,2.7
	c-0.7-1.2-1.7-2.1-2.9-2.7c1.9-3.2,1.6-5.3-1-7.7c0.5-0.6,1.4-0.8,2.1-0.5c1.2,0.5,2.5,0.5,3.7,0c0.6-0.3,1.3-0.2,1.8,0.2
	c0.1,0.1,0.3,0.2,0.4,0.3c-2.4,1.7-3,5-1.3,7.4C52.2,32,52.3,32.2,52.4,32.3L52.4,32.3z M38.9,28.9c0-2,1.6-3.6,3.6-3.6
	c2,0,3.6,1.6,3.6,3.6c0,2-1.6,3.6-3.6,3.6C40.6,32.5,38.9,31,38.9,28.9C38.9,29,38.9,28.9,38.9,28.9L38.9,28.9z M28.7,25.3
	c2,0,3.6,1.6,3.6,3.5c0,2-1.6,3.6-3.5,3.6c0,0-0.1,0-0.1,0c-2,0-3.6-1.6-3.6-3.5c0-2,1.6-3.6,3.5-3.6C28.6,25.3,28.6,25.3,28.7,25.3
	L28.7,25.3z M56.3,25.3c2,0,3.6,1.6,3.6,3.6c0,2-1.6,3.6-3.6,3.6c-2,0-3.6-1.6-3.6-3.6C52.7,26.9,54.3,25.3,56.3,25.3L56.3,25.3z"/>
</svg>
